Coordinates
version=1
nRows=20
nColumns=38
inDegrees=no

Units are S.I. units (second, meters, Newtons, ...)
If the header above contains a line with 'inDegrees', this indicates whether rotational values are in degrees (yes) or radians (no).

endheader
time	pelvis_tilt	pelvis_list	pelvis_rotation	pelvis_tx	pelvis_ty	pelvis_tz	hip_flexion_r	hip_adduction_r	hip_rotation_r	knee_angle_r	ankle_angle_r	subtalar_angle_r	mtp_angle_r	hip_flexion_l	hip_adduction_l	hip_rotation_l	knee_angle_l	ankle_angle_l	subtalar_angle_l	mtp_angle_l	lumbar_extension	lumbar_bending	lumbar_rotation	arm_flex_r	arm_add_r	arm_rot_r	elbow_flex_r	pro_sup_r	wrist_flex_r	wrist_dev_r	arm_flex_l	arm_add_l	arm_rot_l	elbow_flex_l	pro_sup_l	wrist_flex_l	wrist_dev_l
1.06	2.95122	1.23733	-1.36002	0.579352	1.12117	0.934774	-0.523599	0.0265874	-0.17068	0.452889	-0.129117	0	0	0.0180905	-0.108226	-0.356555	0.226958	-0.215969	0	0	-0.54612	0.0912559	-0.0647528	-0.240535	-0.238676	-0.239189	0.923033	0.358597	0	0	-0.257268	-0.300746	0.0759972	0.801223	1.33547	0	0
1.07	2.95743	1.23826	-1.36731	0.577505	1.13345	0.934396	-0.523599	0.0201561	-0.168579	0.47351	-0.137032	0	0	0.0130886	-0.103131	-0.359614	0.243455	-0.220354	0	0	-0.543091	0.087204	-0.063305	-0.245692	-0.239703	-0.240316	0.922306	0.356984	0	0	-0.260145	-0.300801	0.0737131	0.798499	1.33634	0	0
1.08	2.96472	1.23925	-1.37423	0.575379	1.14603	0.93413	-0.523599	0.0141118	-0.165458	0.494642	-0.147199	0	0	0.0103712	-0.0993616	-0.371701	0.260707	-0.227449	0	0	-0.539115	0.0836292	-0.0626987	-0.2521	-0.240766	-0.241398	0.92135	0.356125	0	0	-0.262678	-0.300551	0.0717339	0.795257	1.33612	0	0
1.09	2.97401	1.24003	-1.38157	0.573077	1.15881	0.93411	-0.523599	0.00839299	-0.161161	0.516276	-0.15994	0	0	0.00719876	-0.0963217	-0.387019	0.276039	-0.239362	0	0	-0.534516	0.0800377	-0.0635851	-0.258613	-0.241468	-0.242398	0.919265	0.355628	0	0	-0.26492	-0.300603	0.0703798	0.790964	1.33627	0	0
1.1	2.98411	1.23996	-1.38892	0.570658	1.17173	0.934369	-0.523599	0.00294773	-0.155398	0.538915	-0.175791	0	0	0.00310582	-0.0952153	-0.406447	0.294085	-0.254537	0	0	-0.530038	0.0767274	-0.0657624	-0.264851	-0.241851	-0.243952	0.916682	0.354772	0	0	-0.267275	-0.300874	0.0688632	0.78667	1.33661	0	0
1.11	2.99286	1.23819	-1.39425	0.568103	1.18468	0.934888	-0.523599	-0.00178451	-0.148204	0.564382	-0.194737	0	0	-0.000668807	-0.0988176	-0.433367	0.321711	-0.269593	0	0	-0.526532	0.0747282	-0.0688965	-0.271337	-0.24202	-0.246385	0.914987	0.353386	0	0	-0.270182	-0.301171	0.0674338	0.783262	1.33747	0	0
1.12	3.00053	1.23461	-1.39767	0.56542	1.19763	0.935714	-0.523599	-0.00584643	-0.13925	0.59353	-0.216997	0	0	-0.00957329	-0.10071	-0.450876	0.342162	-0.283008	0	0	-0.524293	0.0740341	-0.072278	-0.278745	-0.242268	-0.248675	0.914413	0.352936	0	0	-0.272544	-0.301481	0.0663818	0.77993	1.33884	0	0
1.13	3.00878	1.22891	-1.40031	0.562648	1.21051	0.936854	-0.523599	-0.00991951	-0.13148	0.626559	-0.243489	0	0	-0.0221111	-0.101851	-0.4607	0.35963	-0.29424	0	0	-0.523991	0.074317	-0.0765187	-0.286987	-0.242211	-0.251393	0.915273	0.352712	0	0	-0.274514	-0.302115	0.0654662	0.777647	1.33935	0	0
1.14	3.01951	1.22099	-1.40441	0.559793	1.22326	0.938331	-0.523599	-0.0146917	-0.125685	0.661974	-0.274827	0	0	-0.0380323	-0.101968	-0.465998	0.374989	-0.301513	0	0	-0.526086	0.074695	-0.0817343	-0.295541	-0.241607	-0.254822	0.917559	0.35219	0	0	-0.27608	-0.303495	0.0651538	0.776729	1.3395	0	0
1.15	3.03501	1.21073	-1.41249	0.556956	1.23575	0.940157	-0.523599	-0.0209437	-0.122184	0.698785	-0.311924	0	0	-0.0580245	-0.0999137	-0.468138	0.387062	-0.303816	0	0	-0.530945	0.0741157	-0.0879426	-0.303945	-0.240548	-0.25868	0.921003	0.351889	0	0	-0.277089	-0.30613	0.0661524	0.777337	1.34	0	0
1.16	3.05564	1.19838	-1.42539	0.554216	1.24793	0.942282	-0.523599	-0.0292573	-0.120817	0.737428	-0.354866	0	0	-0.082192	-0.095276	-0.468913	0.395303	-0.302614	0	0	-0.538561	0.0719313	-0.0948792	-0.311769	-0.238698	-0.262984	0.92516	0.351567	0	0	-0.277392	-0.310092	0.0680698	0.779633	1.34037	0	0
1.17	3.0986	1.16389	-1.45155	0.55107	1.26134	0.945996	-0.523599	-0.0366843	-0.11874	0.756587	-0.399712	0	0	-0.132606	-0.0867865	-0.473681	0.404579	-0.299661	0	0	-0.557214	0.0670844	-0.109171	-0.324562	-0.237939	-0.270235	0.928235	0.351272	0	0	-0.276827	-0.316385	0.0705118	0.785989	1.34071	0	0
1.18	3.11534	1.15274	-1.46418	0.548756	1.27233	0.94812	-0.523599	-0.0473206	-0.119041	0.800969	-0.450649	0	0	-0.159958	-0.0800179	-0.475152	0.402248	-0.295381	0	0	-0.568939	0.0639549	-0.113866	-0.330592	-0.235337	-0.275011	0.93781	0.351754	0	0	-0.275587	-0.322791	0.0740103	0.795338	1.33875	0	0
1.19	3.13179	1.14456	-1.47757	0.546503	1.28309	0.949894	-0.523599	-0.0596393	-0.119741	0.850365	-0.508695	0	0	-0.185783	-0.0711813	-0.475005	0.395781	-0.288734	0	0	-0.577989	0.0601935	-0.117337	-0.336711	-0.232757	-0.280306	0.947887	0.354314	0	0	-0.272585	-0.330179	0.0810335	0.804757	1.33399	0	0
1.2	-3.13892	1.13873	-1.48683	0.544254	1.29362	0.951427	-0.513851	-0.0707863	-0.121103	0.897522	-0.587585	0	0	-0.209761	-0.0629396	-0.471906	0.38688	-0.27587	0	0	-0.585362	0.0583823	-0.11812	-0.343977	-0.226711	-0.293218	0.958992	0.365105	0	0	-0.264354	-0.343207	0.106033	0.813123	1.31452	0	0
1.21	-3.13174	1.14058	-1.49202	0.542229	1.30405	0.952326	-0.478981	-0.0804697	-0.119361	0.952113	-0.613089	0	0	-0.224109	-0.0571202	-0.470145	0.381046	-0.267974	0	0	-0.58329	0.0568496	-0.121813	-0.345337	-0.224181	-0.29722	0.962423	0.370389	0	0	-0.257987	-0.351015	0.118082	0.818089	1.30753	0	0
1.22	-3.12841	1.14362	-1.4938	0.540316	1.31424	0.953091	-0.442215	-0.0883477	-0.11758	1.00534	-0.630036	0	0	-0.236669	-0.0532501	-0.46862	0.375169	-0.259258	0	0	-0.580095	0.0565832	-0.125608	-0.345458	-0.222651	-0.299734	0.965073	0.374309	0	0	-0.251034	-0.35823	0.12844	0.822913	1.30297	0	0
1.23	-3.12894	1.14665	-1.49199	0.538515	1.32411	0.953911	-0.404666	-0.094322	-0.11594	1.05666	-0.62822	0	0	-0.248679	-0.0514532	-0.466597	0.368624	-0.25163	0	0	-0.577239	0.0577505	-0.129333	-0.344593	-0.221933	-0.30089	0.967285	0.377084	0	0	-0.242837	-0.364783	0.137514	0.826962	1.30087	0	0
1.24	-3.13253	1.14927	-1.48723	0.536791	1.33369	0.954857	-0.366928	-0.0986268	-0.115598	1.10446	-0.607906	0	0	-0.260857	-0.0511236	-0.463544	0.360444	-0.245975	0	0	-0.575377	0.0600869	-0.132872	-0.342971	-0.222083	-0.300078	0.968581	0.379737	0	0	-0.233224	-0.370542	0.145236	0.830384	1.30128	0	0
1.25	-3.13815	1.15166	-1.48029	0.535122	1.34302	0.955904	-0.329478	-0.101578	-0.115827	1.14709	-0.578387	0	0	-0.273182	-0.0516504	-0.459393	0.350766	-0.242057	0	0	-0.573965	0.0633673	-0.136688	-0.340222	-0.222676	-0.2987	0.968581	0.381089	0	0	-0.222277	-0.375707	0.152157	0.832531	1.3049	0	0
